P3
# 8-bit ppm - RGB
1 2
255
255   0   0
255 255   0
