P3
2 1
255
100
88
69
196
174
136
