P3
# 8-bit ppm - RGB
2 2
255
255   0   0   0 255   0
255 255   0 255 255 255
