P3
2 2
255
0
0
0
0
28
91
0
13
44
0
85
255
