P3
2 1
255
54
54
54
182
182
182
