P3
2 2
255
0
1
4
0
1
4
0
0
0
0
1
4
